<?xml version="1.0" encoding="utf-8"?>
<!-- Generator: Adobe Illustrator 19.1.0, SVG Export Plug-In . SVG Version: 6.00 Build 0)  -->
<svg version="1.1" id="Layer_1" xmlns="http://www.w3.org/2000/svg" xmlns:xlink="http://www.w3.org/1999/xlink" x="0px" y="0px"
	 viewBox="0 0 64 64" style="enable-background:new 0 0 64 64;" xml:space="preserve">
<style type="text/css">
	.st0{fill:none;stroke:#318FEC;stroke-width:4;stroke-linecap:round;stroke-linejoin:round;stroke-miterlimit:10;}
	.st1{fill:none;stroke:#231F20;stroke-miterlimit:10;}
	.st2{fill:none;stroke:#318FEC;stroke-width:4;stroke-miterlimit:10;}
	.st3{fill:none;stroke:#231F20;stroke-width:4;stroke-linecap:round;stroke-linejoin:round;stroke-miterlimit:10;}
	.st4{fill:none;stroke:#318FEC;stroke-width:4;stroke-linecap:round;stroke-miterlimit:10;}
	.st5{fill:none;stroke:#318FEC;stroke-width:2;stroke-linecap:round;stroke-linejoin:round;stroke-miterlimit:10;}
	.st6{fill:none;stroke:#318FEC;stroke-width:4;stroke-linejoin:round;stroke-miterlimit:10;}
</style>
<polyline class="st6" points="35,35.2 35,59.3 5,59.3 5,29.3 29.2,29.3 "/>
<rect x="29.2" y="5.2" class="st6" width="30" height="30"/>
<g>
	<polyline class="st0" points="13.6,12.9 19.4,12.9 19.4,18.7 	"/>
	<line class="st0" x1="19.4" y1="12.9" x2="13.6" y2="18.7"/>
</g>
<g>
	<polyline class="st0" points="50.4,50.7 44.6,50.7 44.6,44.9 	"/>
	<line class="st0" x1="44.6" y1="50.7" x2="50.4" y2="44.9"/>
</g>
<g>
	<line class="st0" x1="37" y1="13" x2="51" y2="13"/>
	<line class="st0" x1="37" y1="20" x2="48" y2="20"/>
	<line class="st0" x1="37" y1="27" x2="44" y2="27"/>
</g>
<g>
	<line class="st0" x1="13" y1="37" x2="20" y2="37"/>
	<line class="st0" x1="13" y1="44" x2="27" y2="44"/>
	<line class="st0" x1="13" y1="51" x2="24" y2="51"/>
</g>
</svg>
