<?xml version="1.0" encoding="utf-8"?>
<!-- Generator: Adobe Illustrator 19.1.0, SVG Export Plug-In . SVG Version: 6.00 Build 0)  -->
<svg version="1.1" id="Layer_1" xmlns="http://www.w3.org/2000/svg" xmlns:xlink="http://www.w3.org/1999/xlink" x="0px" y="0px"
	 viewBox="0 0 64 64" style="enable-background:new 0 0 64 64;" xml:space="preserve">
<style type="text/css">
	.st0{fill:none;stroke:#318FEC;stroke-width:4;stroke-linecap:round;stroke-linejoin:round;stroke-miterlimit:10;}
	.st1{fill:none;stroke:#231F20;stroke-miterlimit:10;}
	.st2{fill:none;stroke:#318FEC;stroke-width:4;stroke-miterlimit:10;}
	.st3{fill:none;stroke:#231F20;stroke-width:4;stroke-linecap:round;stroke-linejoin:round;stroke-miterlimit:10;}
	.st4{fill:none;stroke:#318FEC;stroke-width:4;stroke-linecap:round;stroke-miterlimit:10;}
	.st5{fill:none;stroke:#318FEC;stroke-width:2;stroke-linecap:round;stroke-linejoin:round;stroke-miterlimit:10;}
	.st6{fill:none;stroke:#318FEC;stroke-width:4;stroke-linejoin:round;stroke-miterlimit:10;}
</style>
<path class="st0" d="M58.7,29c0-5-4-9-9-9c-1,0-2,0.2-2.9,0.5C45.4,13.6,39.3,8.3,32,8.3c-5.7,0-10.7,3.2-13.2,7.9
	C18,16.1,17,16,16.2,16C10.2,16,5,20.9,5,27c0,0.2,0,0.5,0,0.5C5,33.6,10.4,39,16.5,39h32.4c2.7,0,5.2-1.4,6.9-3.2
	C57.6,34.1,58.7,31.6,58.7,29z"/>
<polyline class="st0" points="27.9,51.8 32,47.7 36.1,51.8 "/>
<line class="st0" x1="32" y1="48" x2="32" y2="56"/>
</svg>
