<svg id="Layer_1" data-name="Layer 1" xmlns="http://www.w3.org/2000/svg" viewBox="0 0 181.83 217.38"><defs><style>.cls-1{fill:#0f6696;}.cls-1,.cls-2,.cls-3,.cls-4{stroke:#012f3f;stroke-width:8px;}.cls-1,.cls-2,.cls-3{stroke-linecap:round;}.cls-1,.cls-2{stroke-linejoin:round;}.cls-2{fill:#1b75b2;}.cls-3{fill:#fff;}.cls-4{fill:none;}</style></defs><title>backPackFloat</title><path class="cls-1" d="M59.31,27.7h63.21A55.31,55.31,0,0,1,177.83,83V197.88a15.5,15.5,0,0,1-15.5,15.5H19.8A15.8,15.8,0,0,1,4,197.58V83A55.31,55.31,0,0,1,59.31,27.7Z"/><path class="cls-2" d="M56.24,53.23h66.28a29.94,29.94,0,0,1,29.94,29.94V213.23a0,0,0,0,1,0,0h-126a0,0,0,0,1,0,0V83A29.78,29.78,0,0,1,56.24,53.23Z"/><rect class="cls-1" x="26.46" y="107.23" width="126" height="106"/><line class="cls-3" x1="78.46" y1="195.23" x2="102.46" y2="195.23"/><path class="cls-4" d="M90.91,4h0a19.75,19.75,0,0,1,19.75,19.75v4a0,0,0,0,1,0,0H71.16a0,0,0,0,1,0,0v-4A19.75,19.75,0,0,1,90.91,4Z"/></svg>