<svg id="Layer_1" data-name="Layer 1" xmlns="http://www.w3.org/2000/svg" viewBox="0 0 46 55"><defs><style>.cls-1,.cls-2{fill:none;stroke:#fff;stroke-width:2px;}.cls-1{stroke-miterlimit:10;}.cls-2{stroke-linecap:round;stroke-linejoin:round;}</style></defs><title>backpackMark</title><path class="cls-1" d="M15,7H31A14,14,0,0,1,45,21V50.08A3.92,3.92,0,0,1,41.08,54H5a4,4,0,0,1-4-4V21A14,14,0,0,1,15,7Z"/><path class="cls-2" d="M15,13H31a8,8,0,0,1,8,8V54a0,0,0,0,1,0,0H7a0,0,0,0,1,0,0V21A8,8,0,0,1,15,13Z"/><line class="cls-1" x1="7" y1="27" x2="39" y2="27"/><line class="cls-2" x1="20" y1="49" x2="26" y2="49"/><path class="cls-2" d="M23,1h0a5,5,0,0,1,5,5V7a0,0,0,0,1,0,0H18a0,0,0,0,1,0,0V6A5,5,0,0,1,23,1Z"/></svg>