<?xml version="1.0" encoding="utf-8"?>
<!-- Generator: Adobe Illustrator 19.2.0, SVG Export Plug-In . SVG Version: 6.00 Build 0)  -->
<svg version="1.1" id="Layer_1" xmlns:sketch="http://www.bohemiancoding.com/sketch/ns"
	 xmlns="http://www.w3.org/2000/svg" xmlns:xlink="http://www.w3.org/1999/xlink" x="0px" y="0px" viewBox="0 0 699 392"
	 style="enable-background:new 0 0 699 392;" xml:space="preserve">
<style type="text/css">
	.st0{fill:#FEFEFE;stroke:#012F3F;stroke-width:4;}
	.st1{fill:none;stroke:#012F3F;stroke-width:4;}
	.st2{fill:#FDFDFD;stroke:#012F3F;stroke-width:4;}
	.st3{fill:none;stroke:#012F3F;stroke-width:4;stroke-linecap:square;}
	.st4{fill:#FFFFFF;stroke:#012F3F;stroke-width:4;}
</style>
<title>IPAD 2</title>
<desc>Created with Sketch.</desc>
<path id="bezel_1_" sketch:type="MSShapeGroup" class="st0" d="M597,5H101C87.5,5,76,16.1,76,29.8V356h546V29.8
	C622,16.1,610.5,5,597,5z"/>
<circle id="webcam" sketch:type="MSShapeGroup" class="st1" cx="350" cy="24" r="4">
</circle>
<g id="bottom" transform="translate(0.000000, 351.000000)" sketch:type="MSShapeGroup">
	<path id="Shape" class="st2" d="M643.8,36H54.3C23.6,36,3,25.5,3,21V7.4C3,6.1,4.3,5,6,5h686.1c1.7,0,3,1.1,3,2.4v14.1
		C695.1,25.1,679.1,36,643.8,36z"/>
	<path id="Line" class="st3" d="M3.5,19.5h689.7"/>
</g>
<rect id="screen_1_" x="98" y="44" sketch:type="MSShapeGroup" class="st4" width="501.1" height="292">
</rect>
<g id="IPAD" transform="translate(681.000000, 55.000000)" sketch:type="MSLayerGroup">
	<path id="bezel" sketch:type="MSShapeGroup" class="st2" d="M2.1,331.5h-190.9c-6.6,0-12-5.4-12-12V26.6c0-6.6,5.4-12,12-12H2.1
		c6.6,0,12,5.4,12,12v292.9C14.1,326.1,8.7,331.5,2.1,331.5z"/>
	<path id="bezel-2" sketch:type="MSShapeGroup" class="st2" d="M2.1,331.5h-190.9c-6.6,0-12-5.4-12-12V26.6c0-6.6,5.4-12,12-12H2.1
		c6.6,0,12,5.4,12,12v292.9C14.1,326.1,8.7,331.5,2.1,331.5z"/>
	<rect id="screen" x="-183.9" y="46.5" sketch:type="MSShapeGroup" class="st4" width="182" height="252.9">
	</rect>
	<circle id="lock" sketch:type="MSShapeGroup" class="st1" cx="-92.9" cy="314.5" r="8">
	</circle>
	<circle id="camera" sketch:type="MSShapeGroup" class="st1" cx="-93.9" cy="31.4" r="3">
	</circle>
</g>
<path id="touchpad" sketch:type="MSShapeGroup" class="st4" d="M424,357v3.1c0,2.2-4.3,2.9-7.6,2.9H281.8c-3.5,0-7.8-0.7-7.8-2.9
	V357"/>
<g>
	<path id="bezel_2_" sketch:type="MSShapeGroup" class="st2" d="M518.7,371c0,8.8-7.2,16-16.1,16h-97.9c-8.9,0-16.1-7.2-16.1-16
		V129.1c0-8.8,7.2-16,16.1-16h97.9c8.9,0,16.1,7.2,16.1,16V371L518.7,371z"/>
	<rect id="screen_2_" x="397.7" y="149.1" sketch:type="MSShapeGroup" class="st4" width="111.9" height="199.1">
	</rect>
	<path id="speaker" sketch:type="MSShapeGroup" class="st1" d="M465.7,138.8c0,0.6-0.4,1.1-1,1.1h-20.1c-0.5,0-1-0.5-1-1.1v-2.6
		c0-0.6,0.4-1.1,1-1.1h20.1c0.5,0,1,0.5,1,1.1V138.8L465.7,138.8z"/>
	<circle id="camera_1_" sketch:type="MSShapeGroup" class="st1" cx="454.7" cy="125.1" r="3">
	</circle>
	<ellipse id="lock_1_" sketch:type="MSShapeGroup" class="st1" cx="453.7" cy="367.1" rx="10" ry="10">
	</ellipse>
</g>
</svg>
