<svg id="Layer_1" data-name="Layer 1" xmlns="http://www.w3.org/2000/svg" viewBox="0 0 204.02 204.02"><defs><style>.cls-1,.cls-2{fill:#4399ee;}.cls-2,.cls-3,.cls-4,.cls-5,.cls-6,.cls-7{stroke:#012f3f;stroke-linecap:round;stroke-linejoin:round;}.cls-2,.cls-3,.cls-4,.cls-6,.cls-7{stroke-width:6px;}.cls-3{fill:#d7f0f9;}.cls-4{fill:#fff;}.cls-5{fill:none;stroke-width:4px;}.cls-6{fill:#e5ba42;}.cls-7{fill:#db525c;}</style></defs><title>icon1</title><circle class="cls-1" cx="102.01" cy="102.01" r="102.01"/><rect class="cls-2" x="50.01" y="50.01" width="84" height="104" rx="1" ry="1"/><rect class="cls-3" x="134.01" y="50.01" width="20" height="104"/><rect class="cls-4" x="71.01" y="71.01" width="40" height="61"/><line class="cls-5" x1="144.01" y1="60.01" x2="144.01" y2="94.01"/><line class="cls-5" x1="144.01" y1="112.01" x2="144.01" y2="146.01"/><polygon class="cls-6" points="111.51 51.01 133.01 51.01 133.01 72.51 111.51 51.01"/><polygon class="cls-6" points="111.51 154.01 133.01 154.01 133.01 132.01 111.51 154.01"/><polygon class="cls-6" points="72.01 154.01 50.01 154.01 50.01 132.01 72.01 154.01"/><polygon class="cls-6" points="72.01 51.01 50.01 51.01 50.01 73.01 72.01 51.01"/><polyline class="cls-7" points="84.01 156.01 84.01 172.01 76.51 165.51 69.01 172.01 69.01 156.01"/></svg>