<svg id="Layer_1" data-name="Layer 1" xmlns="http://www.w3.org/2000/svg" viewBox="0 0 204.02 204.02"><defs><style>.cls-1{fill:#f2f2f2;}.cls-2{fill:#d7f0f9;}.cls-2,.cls-3,.cls-4{stroke:#012f3f;stroke-linecap:round;stroke-width:6px;}.cls-2,.cls-3{stroke-linejoin:round;}.cls-3{fill:#4399ee;}.cls-4{fill:#db525c;stroke-miterlimit:10;}</style></defs><title>icon3</title><circle class="cls-1" cx="102.01" cy="102.01" r="102.01"/><rect class="cls-2" x="50.01" y="50.01" width="104" height="104" rx="10" ry="10"/><path class="cls-3" d="M561.08,97L535.61,71.82a6,6,0,0,1-1.79-4.29h0a6,6,0,0,1,10.24-4.34L561.35,80h0.16l46.66-47.11A5.7,5.7,0,0,1,618,37V37a5.74,5.74,0,0,1-1.43,4.22L561.07,97" transform="translate(-473.99 38.01)"/><path class="cls-4" d="M616,85h-6V78a2,2,0,0,0-2-2h-6a2,2,0,0,0-2,2v7h-7a2,2,0,0,0-2,2v6a2,2,0,0,0,2,2h7v7a2,2,0,0,0,2,2h6a2,2,0,0,0,2-2V95h6a2,2,0,0,0,2-2V87A2,2,0,0,0,616,85Z" transform="translate(-473.99 38.01)"/></svg>