<svg id="Layer_1" data-name="Layer 1" xmlns="http://www.w3.org/2000/svg" viewBox="0 0 204.02 204.02"><defs><style>.cls-1{fill:#f2f2f2;}.cls-2{fill:#d7f0f9;}.cls-2,.cls-3,.cls-5,.cls-6{stroke:#012f3f;stroke-linecap:round;stroke-linejoin:round;}.cls-2,.cls-3,.cls-4,.cls-5{stroke-width:6px;}.cls-3,.cls-5{fill:none;}.cls-3{opacity:0.2;}.cls-4,.cls-6{fill:#012f3f;}.cls-4{stroke:#db525c;stroke-miterlimit:10;}.cls-6{stroke-width:2px;}</style></defs><title>icon2</title><circle class="cls-1" cx="102.01" cy="102.01" r="102.01"/><path class="cls-2" d="M343,12H273a6,6,0,0,0-6,6v92a6,6,0,0,0,6,6h93a6,6,0,0,0,6-6V41" transform="translate(-217.99 38.01)"/><polygon class="cls-3" points="153.55 81.01 126.01 81.01 126.01 53.07 153.55 81.01"/><polygon class="cls-2" points="153.55 78.01 126.01 78.01 126.01 50.07 153.55 78.01"/><line class="cls-4" x1="70.01" y1="53.01" x2="70.01" y2="151.01"/><line class="cls-5" x1="50.01" y1="78.01" x2="117.01" y2="78.01"/><line class="cls-5" x1="50.01" y1="103.01" x2="154.01" y2="103.01"/><line class="cls-5" x1="50.01" y1="129.01" x2="154.01" y2="129.01"/><circle class="cls-6" cx="60.01" cy="141.86" r="2.33"/><circle class="cls-6" cx="60.01" cy="116.36" r="2.33"/><circle class="cls-6" cx="60.01" cy="91.01" r="2.33"/></svg>