<svg id="Layer_1" data-name="Layer 1" xmlns="http://www.w3.org/2000/svg" viewBox="0 0 572 657"><defs><style>.cls-1,.cls-2,.cls-3{fill:none;}.cls-1,.cls-2{stroke:#1561ac;}.cls-1,.cls-3{stroke-width:11px;}.cls-2{stroke-width:10.93px;}.cls-3{stroke:#fff;}</style></defs><title>iphoneMockLanding</title><path class="cls-1" d="M1255.5,743V160.66c0-38.22,30.36-69.16,68.74-69.16h423.51c38.39,0,68.74,30.94,68.74,69.16V743" transform="translate(-1250 -86)"/><circle id="camera" class="cls-2" cx="202.31" cy="89.66" r="8.75"/><path class="cls-1" d="M1589.5,175a8.5,8.5,0,0,1-8.5,8.5h-90a8.5,8.5,0,0,1-8.5-8.5h0a8.5,8.5,0,0,1,8.5-8.5h90a8.5,8.5,0,0,1,8.5,8.5h0Z" transform="translate(-1250 -86)"/><path class="cls-3" d="M253.85,305.47h63.21a55.31,55.31,0,0,1,55.31,55.31V475.65a15.5,15.5,0,0,1-15.5,15.5H214.34a15.8,15.8,0,0,1-15.8-15.8V360.78A55.31,55.31,0,0,1,253.85,305.47Z"/><path class="cls-3" d="M253.85,330.5h63.37a30.28,30.28,0,0,1,30.28,30.28V491.5a0,0,0,0,1,0,0h-126a0,0,0,0,1,0,0V362.85A32.35,32.35,0,0,1,253.85,330.5Z"/><line class="cls-3" x1="221" y1="384.5" x2="348" y2="384.5"/><line class="cls-3" x1="273" y1="472.5" x2="297" y2="472.5"/><path class="cls-3" d="M285.45,281.77h0a19.75,19.75,0,0,1,19.75,19.75v4a0,0,0,0,1,0,0H265.7a0,0,0,0,1,0,0v-4A19.75,19.75,0,0,1,285.45,281.77Z"/><polyline class="cls-1" points="43.5 657 43.5 160.5 527.5 160.5 527.5 657"/></svg>