<svg id="Layer_1" data-name="Layer 1" xmlns="http://www.w3.org/2000/svg" viewBox="0 0 800 600"><defs><style>.cls-1{fill:#318ad3;}.cls-1,.cls-2,.cls-3{stroke:#012f3f;stroke-width:8px;}.cls-1,.cls-3{stroke-linecap:round;stroke-linejoin:round;}.cls-2{fill:#fff;}.cls-3{fill:none;opacity:0.5;}</style></defs><title>iphoneMockLanding</title><rect class="cls-1" x="157" y="163" width="484" height="625.44"/><path class="cls-2" d="M611.76,8H188.24C149.86,8,119,38.44,119,76.66V1123.34c0,38.22,30.86,69.66,69.24,69.66H611.76c38.38,0,68.24-31.44,68.24-69.66V76.66C680,38.44,650.14,8,611.76,8ZM349,85.24A8.28,8.28,0,0,1,355,83h90a8.5,8.5,0,0,1,0,17H355a8.61,8.61,0,0,1-8.5-8.62A8.78,8.78,0,0,1,349,85.24Zm-32.68-2.32a8.74,8.74,0,1,1-8.75,8.74A8.74,8.74,0,0,1,316.31,82.92ZM641,1025H157V163H641v862Z"/><line class="cls-3" x1="332.84" y1="527.97" x2="467.16" y2="527.97"/></svg>